# xmcd
#
# Track frame offsets: 
#        150
#        19870
#        43718
#        61844
#        81708
#        100527
#        121343
#        137209
#        159858
#        180166
#        201171
#        222363
#        241925
#        261968
#
# Disc length: 3775 seconds
#
# Revision: 1
# Processed by: cddbd v1.5.2PL0 Copyright (c) Steve Scherf et al.
# Submitted via: ExactAudioCopyFreeDBPlugin 1.0
#
DISCID=bc0ebd0e
DTITLE=任双江／楊洋 - 摯愛情歌
DYEAR=2008
DGENRE=Pop-Folk
TTITLE0=蘭亭序
TTITLE1=畫心
TTITLE2=外灘十八号
TTITLE3=想太多
TTITLE4=我們說好的
TTITLE5=是你决定我的傷心
TTITLE6=新不了情
TTITLE7=愛無界
TTITLE8=愛我
TTITLE9=左边
TTITLE10=舍不得
TTITLE11=恩為有你
TTITLE12=依然在一起
TTITLE13=男人女人
EXTD=
EXTT0=
EXTT1=
EXTT2=
EXTT3=
EXTT4=
EXTT5=
EXTT6=
EXTT7=
EXTT8=
EXTT9=
EXTT10=
EXTT11=
EXTT12=
EXTT13=
PLAYORDER=
